<?xml version="1.0" encoding="UTF-8"?>
<svg xmlns="http://www.w3.org/2000/svg" version="1.1" viewBox="0 0 108 108">
  <defs>
    <style>
      .cls-1 {
        fill: #ed1c24;
      }

      .cls-2 {
        fill: #808285;
      }
    </style>
  </defs>
  <!-- Generator: Adobe Illustrator 28.6.0, SVG Export Plug-In . SVG Version: 1.2.0 Build 709)  -->
  <g>
    <g id="Layer_1">
      <rect class="cls-2" x="80.4" y="32.2" width="6.7" height="27.3"/>
      <rect class="cls-1" x="60.5" y="15.4" width="16.7" height="13.5"/>
      <polygon class="cls-1" points="60.5 42.2 60.5 53.4 60.5 66.9 77.2 66.9 77.2 53.4 77.2 42.2 60.5 42.2"/>
      <path class="cls-1" d="M60.5,75.9v5.7h6.7v-11.4h-6.7v5.7ZM70.5,70.2v11.4h6.7v-11.4h-6.7Z"/>
      <polygon class="cls-1" points="30.6 32.2 30.6 48.4 30.6 59.5 47.3 59.5 47.3 48.4 47.3 32.2 30.6 32.2"/>
      <path class="cls-1" d="M30.6,75.9v5.7h6.7v-18.8h-6.7v13.1ZM40.6,62.7v18.8h6.7v-18.8h-6.7Z"/>
      <rect class="cls-1" x="30.6" y="15.4" width="16.7" height="13.5"/>
      <rect class="cls-2" x="50.6" y="32.2" width="6.7" height="18.9"/>
      <rect class="cls-2" x="20.6" y="32.2" width="6.7" height="10.2"/>
      <path class="cls-2" d="M87.3,64.3c0,1.9-1.6,3.5-3.5,3.5s-3.5-1.6-3.5-3.5,1.6-3.5,3.5-3.5,3.5,1.6,3.5,3.5Z"/>
      <path class="cls-1" d="M76.9,35.7c0,1.9-1.6,3.5-3.5,3.5s-3.5-1.6-3.5-3.5,1.6-3.5,3.5-3.5,3.5,1.6,3.5,3.5Z"/>
      <path class="cls-1" d="M72.3,9.6c0,1.9-1.6,3.5-3.5,3.5s-3.5-1.6-3.5-3.5,1.6-3.5,3.5-3.5,3.5,1.6,3.5,3.5Z"/>
      <path class="cls-1" d="M67.5,35.7c0,1.9-1.6,3.5-3.5,3.5s-3.5-1.6-3.5-3.5,1.6-3.5,3.5-3.5,3.5,1.6,3.5,3.5Z"/>
      <path class="cls-2" d="M57.4,55.9c0,1.9-1.6,3.5-3.5,3.5s-3.5-1.6-3.5-3.5,1.6-3.5,3.5-3.5,3.5,1.6,3.5,3.5Z"/>
      <path class="cls-2" d="M27.4,47.2c0,1.9-1.6,3.5-3.5,3.5s-3.5-1.6-3.5-3.5,1.6-3.5,3.5-3.5,3.5,1.6,3.5,3.5Z"/>
      <g>
        <path class="cls-2" d="M26.5,87.9c1.7,0,3.1.6,4.3,1.8,1.2,1.2,1.8,2.7,1.8,4.4s-.6,3.2-1.8,4.4c-1.2,1.2-2.7,1.8-4.4,1.8s-3.2-.6-4.4-1.8c-1.2-1.2-1.8-2.7-1.8-4.4s.6-3.2,1.8-4.4c1.2-1.2,2.7-1.8,4.5-1.8ZM26.4,91.4c-.7,0-1.3.3-1.9.8-.5.5-.8,1.2-.8,1.9s.3,1.4.8,1.9c.5.5,1.1.8,1.9.8s1.4-.3,1.9-.8c.5-.5.8-1.2.8-1.9s-.3-1.4-.8-1.9c-.5-.5-1.1-.8-1.9-.8Z"/>
        <path class="cls-2" d="M75.6,95.9c0,1.3-.4,2.4-1.1,3.1-.7.8-1.7,1.1-3,1.1h-3.9v-3.5h3.2c.5,0,.9,0,1.1-.3.2-.2.3-.6.3-1.1v-7.1h3.5v7.6Z"/>
        <path class="cls-2" d="M47.6,88.2v11.9h-3.5v-11.9h3.5Z"/>
        <path class="cls-2" d="M52.5,100.1v-7.7c0-1.4.5-2.4,1.5-3.3,1-.8,2.3-1.2,3.9-1.2s2.9.4,3.8,1.2c.9.8,1.3,1.9,1.3,3.4v7.6h-3.6v-6.8c0-1.3-.6-1.9-1.7-1.9s-1.6.6-1.6,1.9v6.8h-3.6Z"/>
        <path class="cls-2" d="M81,87.9v6.8c0,1.3.5,1.9,1.6,1.9s1.7-.6,1.7-1.9v-6.8h3.6v7.6c0,1.5-.4,2.6-1.3,3.4-.9.8-2.1,1.2-3.8,1.2s-3-.4-3.9-1.2c-1-.8-1.5-1.9-1.5-3.3v-7.7h3.6Z"/>
        <path class="cls-2" d="M70.3,96.7c1,0,1.8-.8,1.8-1.8h1v2.3h-2.9v-.5Z"/>
        <g>
          <path class="cls-2" d="M34.4,88.2h3.5v7.1c0,.5,0,.9.3,1.1.2.2.5.3,1.1.3h3.2v3.5h-3.9c-1.3,0-2.3-.4-3-1.1-.7-.8-1.1-1.8-1.1-3.1v-7.6Z"/>
          <path class="cls-2" d="M39.8,96.7c-1,0-1.8-.8-1.8-1.8h-1v2.3h2.9v-.5Z"/>
        </g>
      </g>
    </g>
  </g>
</svg>